<svg xmlns="http://www.w3.org/2000/svg" version="1.0" preserveAspectRatio="xMidYMid meet" viewBox="42 176.43 428.2 158.57">

<g transform="translate(0.000000,500.000000) scale(0.100000,-0.100000)" fill="#000000" stroke="none">
<path d="M573 3231 c-91 -23 -146 -94 -147 -190 0 -103 64 -182 161 -197 80 -12 175 32 208 96 24 47 20 60 -22 60 -29 0 -43 -7 -69 -35 -28 -31 -37 -35 -81 -35 -41 0 -55 5 -76 26 -49 49 -47 126 6 170 27 23 38 26 81 21 38 -3 55 -10 71 -31 16 -21 29 -26 63 -26 23 0 42 3 42 6 0 4 -10 24 -22 46 -38 67 -136 108 -215 89z"/>
<path d="M1129 3231 c-172 -33 -212 -276 -59 -361 98 -54 229 -22 280 70 85 153 -45 324 -221 291z m121 -108 c39 -35 49 -87 26 -134 -21 -44 -48 -61 -101 -61 -53 0 -80 17 -101 61 -37 77 15 161 101 161 35 0 52 -6 75 -27z"/>
<path d="M1560 3040 l0 -190 98 0 c85 0 105 3 148 25 113 56 136 206 45 296 -45 46 -91 59 -203 59 l-88 0 0 -190z m206 91 c60 -36 69 -124 19 -171 -19 -18 -40 -25 -85 -28 l-60 -4 0 111 0 111 48 0 c28 0 59 -7 78 -19z"/>
<path d="M2087 3223 c-4 -3 -7 -89 -7 -190 l0 -183 130 0 130 0 0 35 0 35 -86 0 -85 0 3 43 3 42 73 3 72 3 0 34 0 35 -75 0 -75 0 0 40 0 40 80 0 80 0 0 35 0 35 -118 0 c-65 0 -122 -3 -125 -7z"/>
<path d="M2690 3030 l0 -110 1005 0 1005 0 0 110 0 110 -1005 0 -1005 0 0 -110z"/>
<path d="M505 2485 c-51 -18 -74 -50 -75 -100 0 -67 29 -91 150 -127 38 -11 46 -17 48 -40 3 -22 -2 -30 -21 -37 -34 -13 -80 0 -92 27 -8 18 -18 22 -53 22 -40 0 -43 -2 -37 -22 21 -70 67 -102 144 -103 100 0 151 39 151 118 0 49 -38 83 -121 108 -76 23 -99 41 -82 67 7 12 24 17 54 17 36 0 46 -4 54 -22 8 -18 18 -23 47 -23 34 0 38 3 38 25 0 36 -48 84 -95 95 -52 12 -62 12 -110 -5z"/>
<path d="M1039 2491 c-172 -33 -212 -276 -59 -361 98 -54 229 -22 280 70 85 153 -45 324 -221 291z m121 -108 c39 -35 49 -87 26 -134 -21 -44 -48 -61 -101 -61 -53 0 -80 17 -101 61 -37 77 15 161 101 161 35 0 52 -6 75 -27z"/>
<path d="M2585 2486 c-143 -40 -182 -241 -66 -339 89 -75 243 -50 298 48 31 56 29 65 -13 65 -29 0 -44 -8 -70 -34 -75 -77 -194 -33 -194 72 0 102 107 149 183 82 27 -23 44 -30 76 -30 40 0 40 0 30 28 -34 89 -139 136 -244 108z"/>
<path d="M1462 2352 c4 -148 14 -184 68 -223 70 -52 191 -25 229 50 18 35 21 59 21 176 l0 136 -42 -3 -43 -3 -3 -131 c-3 -147 -12 -168 -73 -166 -57 1 -64 18 -67 167 l-4 135 -45 0 -45 0 4 -138z"/>
<path d="M1980 2300 l0 -190 45 0 45 0 0 61 c0 60 0 60 27 57 21 -2 34 -16 60 -60 l34 -58 50 0 50 0 -26 43 c-50 80 -51 87 -28 105 48 39 59 129 21 177 -33 42 -76 55 -183 55 l-95 0 0 -190z m200 95 c18 -22 15 -66 -6 -82 -10 -7 -37 -13 -61 -13 l-43 0 0 55 0 55 49 0 c31 0 53 -5 61 -15z"/>
<path d="M3020 2300 l0 -190 130 0 130 0 0 35 0 35 -85 0 -85 0 0 45 0 45 76 0 75 0 -3 33 -3 32 -72 3 -73 3 0 39 0 40 80 0 80 0 0 35 0 35 -125 0 -125 0 0 -190z"/>
<path d="M3460 2300 l0 -190 45 0 45 0 0 61 c0 60 0 60 27 57 21 -2 34 -16 60 -60 l34 -58 50 0 50 0 -26 43 c-50 80 -51 87 -28 105 48 39 59 129 21 177 -33 42 -76 55 -183 55 l-95 0 0 -190z m200 95 c18 -22 15 -66 -6 -82 -10 -7 -37 -13 -61 -13 l-43 0 0 55 0 55 49 0 c31 0 53 -5 61 -15z"/>
<path d="M3950 2300 l0 -190 130 0 130 0 0 35 0 35 -85 0 -85 0 0 45 0 45 75 0 75 0 0 35 0 35 -75 0 -75 0 0 40 0 40 80 0 80 0 0 35 0 35 -125 0 -125 0 0 -190z"/>
<path d="M4390 2300 l0 -190 45 0 45 0 0 60 c0 59 1 60 28 60 23 0 32 -9 60 -60 l33 -60 51 0 50 0 -28 48 c-15 26 -32 55 -38 64 -8 13 -5 21 17 38 31 24 51 87 41 127 -19 78 -70 103 -209 103 l-95 0 0 -190z m204 94 c41 -40 1 -94 -69 -94 l-45 0 0 55 0 55 49 0 c32 0 55 -6 65 -16z"/>
<path d="M420 1760 l0 -110 1000 0 1000 0 0 110 0 110 -1000 0 -1000 0 0 -110z"/>
</g>
</svg>